PathFileType	4	(X/Y/Z)	C:/Users/opensim2020/Desktop/walking_exp_matlab/subject06_walking22_straight_02.trc																																																																																																																																		
DataRate	CameraRate	NumFrames	NumMarkers	Units	OrigDataRate	OrigDataStartFrame	OrigNumFrames																																																																																																																														
100	100	4	44	mm	100	1329	81																																																																																																																														
Frame#	Time	LFHD			RFHD			LBHD			RBHD			C7			T10			CLAV			STRN			RBAK			LSHO			LUPA			LELB			LFRM			LWRA			LWRB			LFIN			RSHO			RUPA			RELB			RFRM			RWRA			RWRB			RFIN			LASI			RASI			LPSI			RPSI			LTHI			LKNE			LTIB			LANK			LHEE			LTOE			RTHI			RKNE			RTIB			RANK			RHEE			RTOE			*39			*40			*41			*42			*43		
		X1	Y1	Z1	X2	Y2	Z2	X3	Y3	Z3	X4	Y4	Z4	X5	Y5	Z5	X6	Y6	Z6	X7	Y7	Z7	X8	Y8	Z8	X9	Y9	Z9	X10	Y10	Z10	X11	Y11	Z11	X12	Y12	Z12	X13	Y13	Z13	X14	Y14	Z14	X15	Y15	Z15	X16	Y16	Z16	X17	Y17	Z17	X18	Y18	Z18	X19	Y19	Z19	X20	Y20	Z20	X21	Y21	Z21	X22	Y22	Z22	X23	Y23	Z23	X24	Y24	Z24	X25	Y25	Z25	X26	Y26	Z26	X27	Y27	Z27	X28	Y28	Z28	X29	Y29	Z29	X30	Y30	Z30	X31	Y31	Z31	X32	Y32	Z32	X33	Y33	Z33	X34	Y34	Z34	X35	Y35	Z35	X36	Y36	Z36	X37	Y37	Z37	X38	Y38	Z38	X39	Y39	Z39	X40	Y40	Z40	X41	Y41	Z41	X42	Y42	Z42	X43	Y43	Z43	X44	Y44	Z44
																																																																																																																																					
71	0.7	308.71054	1643.28931	873.2926	330.51385	1650.84729	1003.72064	175.2972	1598.40222	902.87885	198.87849	1610.3457	1029.88098	178.93652	1443.89282	963.75043	154.23715	1113.30713	980.29919	290.09503	1368.61084	969.41876	334.62921	1195.5033	973.10596	106.18659	1274.79077	1044.99915	239.04143	1394.2395	805.336	227.41391	1192.67603	734.89728	212.96812	1080.6908	724.03467	231.31535	931.69482	701.84021	284.51495	813.67828	746.0755	225.88179	812.74463	705.22467	260.73956	728.94037	705.51685	236.55746	1406.67505	1127.21338	184.86781	1216.71521	1222.93994	188.33092	1095.0752	1239.74866	219.58717	980.08801	1258.04541	302.46335	856.09515	1222.82031	250.75119	845.74988	1264.84155	301.66687	777.58636	1261.64099	348.06659	964.31049	884.36096	327.12326	966.89795	1102.97498	188.62619	982.02771	899.36316	180.01436	978.82141	1065.76563	320.53061	644.9447	831.30817	337.40112	483.01431	862.79724	271.9834	232.81137	868.82135	234.00981	66.38395	910.83051	186.69394	55.27005	951.74426	374.59875	35.80283	923.61102	351.28323	635.57013	1165.84265	402.72165	519.3208	1154.13647	257.43784	309.09549	1130.58569	146.72673	164.1723	1075.40723	107.68951	161.56033	1023.01721	252.48563	54.47518	1095.85803	221.6295	1695.89722	942.0022	NaN	NaN	NaN	NaN	NaN	NaN	NaN	NaN	NaN	NaN	NaN	NaN
72	0.71	323.16843	1644.5321	873.5636	345.09778	1651.71667	1004.00787	189.26282	1600.08105	903.01459	213.42368	1611.52063	1030.20361	193.38486	1444.84998	963.60559	169.13721	1114.35986	979.61664	304.45859	1370.02734	969.22839	349.1835	1196.90552	972.53967	120.58311	1275.52759	1044.14111	253.22354	1395.93091	805.25867	244.61684	1194.52539	734.21112	232.16446	1082.15747	723.07159	255.96774	933.60248	701.76044	314.00134	818.33728	747.00549	255.66153	814.41565	706.40936	294.80652	732.64063	707.07117	250.46027	1407.40735	1127.07336	197.67667	1217.58435	1222.56567	199.76524	1095.63232	1238.95886	227.742	979.63611	1257.81104	307.62189	853.013	1224.19421	254.50195	844.30084	1265.58179	303.13831	774.16223	1262.52954	362.12357	964.625	883.19366	342.81946	968.4425	1101.7771	203.0132	982.91095	899.32843	195.44948	980.50653	1065.90613	328.19626	645.0177	831.3902	341.60245	482.43018	862.09717	273.49866	232.93948	868.59045	234.42464	66.55647	910.86853	187.16905	55.79579	951.94568	374.97812	35.71507	923.68042	370.55383	638.9165	1166.3811	423.48978	523.64709	1153.88062	287.47113	305.39331	1131.19812	185.94817	153.84903	1075.9823	147.61545	148.2836	1023.19098	298.18967	51.62006	1099.46741	236.33081	1697.26147	942.54102	NaN	NaN	NaN	NaN	NaN	NaN	NaN	NaN	NaN	NaN	NaN	NaN
73	0.72	337.41711	1645.47375	873.90308	359.49469	1652.28259	1004.31915	203.46979	1601.22888	903.37378	227.76892	1612.29761	1030.6001	207.66125	1445.5929	963.46808	184.10815	1115.0238	978.99628	318.53256	1370.8501	969.16193	363.90961	1197.86047	971.89453	135.05133	1275.89771	1043.35254	267.43509	1397.16272	805.17383	261.74985	1195.93591	733.59265	250.91179	1083.23083	722.20892	280.92996	935.45935	701.72076	343.7872	823.39868	747.86603	285.68054	816.44025	707.55188	328.79117	736.67621	708.79791	264.47119	1407.70886	1127.03088	210.14784	1217.83203	1221.44482	211.27094	1095.89539	1238.22668	235.95378	979.01587	1257.63611	311.92538	849.35767	1225.10535	258.19324	842.8335	1266.3186	304.46823	770.85779	1263.91968	375.96616	964.54828	882.00494	358.60052	969.45459	1100.4718	217.09673	983.58905	899.54468	210.99854	981.78668	1066.25928	336.4314	644.89758	831.05463	346.11414	481.77338	861.41748	275.52081	232.95122	868.39209	234.75728	66.84332	910.90259	188.16714	55.86324	951.58789	375.26959	35.58005	923.69482	389.90863	642.35602	1167.10925	443.36337	527.38324	1153.46423	317.68619	301.30325	1132.06116	226.03207	143.5657	1077.10681	188.63971	134.9492	1024.13843	344.17981	49.11655	1103.45276	250.72908	1698.16467	943.07184	NaN	NaN	NaN	NaN	NaN	NaN	NaN	NaN	NaN	NaN	NaN	NaN
74	0.73	351.59238	1645.99048	874.21967	373.83542	1652.61633	1004.62494	217.71373	1601.82239	903.69928	241.96986	1612.57739	1030.96814	221.96758	1445.91541	963.24463	198.90259	1115.21729	978.63177	333.00598	1371.35449	969.03876	378.61215	1198.42053	971.26068	149.66519	1275.88184	1042.57251	281.79617	1397.96289	805.12421	278.86127	1196.88245	732.93823	270.10223	1083.97009	721.09912	305.58334	937.23755	701.58545	373.54672	828.72394	748.65717	315.64197	818.42145	709.05511	362.98196	741.2019	710.56757	278.65451	1407.63635	1126.98779	222.92604	1217.91699	1220.96582	222.90977	1095.79956	1237.5575	244.21733	978.20435	1257.54663	316.51157	845.86835	1226.59729	262.10141	841.31641	1267.1134	305.66953	767.65332	1265.71887	389.59247	964.02533	880.74158	374.46933	970.07434	1099.15625	230.98933	983.98834	899.81128	226.48737	982.76257	1066.7489	345.07007	644.58954	830.82288	351.05365	481.04456	860.74445	278.06879	232.82416	868.18903	235.14903	67.15934	910.85376	188.30197	56.69277	951.46063	375.40628	35.36857	923.72809	408.40424	644.85962	1167.52332	462.59064	530.55035	1153.29651	348.12512	296.99796	1133.05371	266.99933	133.15033	1078.75391	230.39572	121.74775	1025.66284	390.68909	47.03436	1107.60266	264.99338	1698.62219	943.54846	NaN	NaN	NaN	NaN	NaN	NaN	NaN	NaN	NaN	NaN	NaN	NaN
